<svg xmlns="http://www.w3.org/2000/svg" viewBox="0 0 429 512"><title>backpack</title><g id="Layer_2" data-name="Layer 2"><g id="Capa_1" data-name="Capa 1"><path d="M412.5,338.83h-7.73L387.65,130a32.07,32.07,0,0,0-31.78-29.29H310.58a148.36,148.36,0,0,0-50.65-28.11V45.43a45.43,45.43,0,0,0-90.86,0V72.58a148.37,148.37,0,0,0-50.65,28.11H73.13A32.07,32.07,0,0,0,41.35,130l-4.82,58.79a7.5,7.5,0,0,0,6.86,8.09l.62,0A7.5,7.5,0,0,0,51.48,190L56.3,131.2a17,17,0,0,1,16.83-15.51h29.95a148.3,148.3,0,0,0-36.86,86.48L55.08,338.83H39.28l10-121.95a7.5,7.5,0,1,0-14.95-1.22L24.23,338.83H16.5A16.52,16.52,0,0,0,0,355.33V461.25A50.81,50.81,0,0,0,50.75,512h327.5A50.81,50.81,0,0,0,429,461.25V355.33A16.52,16.52,0,0,0,412.5,338.83ZM372.7,131.2l17,207.63H373.92L362.78,202.17a148.32,148.32,0,0,0-36.86-86.48h30A17,17,0,0,1,372.7,131.2ZM184.07,45.43a30.43,30.43,0,0,1,60.86,0V68.62a149.36,149.36,0,0,0-60.86,0ZM50.75,497A35.79,35.79,0,0,1,15,461.25V355.33a1.5,1.5,0,0,1,1.5-1.5H53.85L47,437.6A68.68,68.68,0,0,0,72.73,497Zm64.85,0A53.81,53.81,0,0,1,62,438.82l19.2-235.43c5.62-68.91,64.18-122.9,133.33-122.9s127.71,54,133.33,122.9L367,438.82A53.81,53.81,0,0,1,313.4,497ZM414,461.25A35.79,35.79,0,0,1,378.25,497h-22A68.68,68.68,0,0,0,382,437.6l-6.83-83.77H412.5a1.5,1.5,0,0,1,1.5,1.5Z"/><path d="M224.76,238.45a11.82,11.82,0,0,1-20.51,0,7.5,7.5,0,0,0-13,7.48,26.82,26.82,0,0,0,46.52,0,7.5,7.5,0,0,0-13-7.48Z"/><path d="M278.19,230.11a7.5,7.5,0,0,0,7.5-7.5V211.26a7.5,7.5,0,1,0-15,0v11.35A7.5,7.5,0,0,0,278.19,230.11Z"/><path d="M150.81,230.11a7.5,7.5,0,0,0,7.5-7.5V211.26a7.5,7.5,0,1,0-15,0v11.35A7.5,7.5,0,0,0,150.81,230.11Z"/><path d="M265,244.08a7.5,7.5,0,0,0,7.5,7.5h11.36a7.5,7.5,0,1,0,0-15H272.51A7.5,7.5,0,0,0,265,244.08Z"/><path d="M137.63,244.08a7.5,7.5,0,0,0,7.5,7.5h11.35a7.5,7.5,0,0,0,0-15H145.13A7.5,7.5,0,0,0,137.63,244.08Z"/><path d="M108.16,213.11a7.5,7.5,0,0,0,8.09-6.87,98.58,98.58,0,0,1,196.5,0l.24,3a7.5,7.5,0,0,0,7.47,6.89l.62,0a7.5,7.5,0,0,0,6.87-8.08l-.24-3a113.58,113.58,0,0,0-226.4,0A7.5,7.5,0,0,0,108.16,213.11Z"/><path d="M258.51,463.51a7.5,7.5,0,0,0,0-15H119.67A9.84,9.84,0,0,1,109.85,438l3.66-53.72,79,16.64a106.85,106.85,0,0,0,44.06,0l79-16.64L319.15,438a9.84,9.84,0,0,1-9.82,10.51H286.51a7.5,7.5,0,1,0,0,15h22.82A24.84,24.84,0,0,0,334.11,437L330.3,381a21.37,21.37,0,0,0,14.76-22.26l-4.49-49.88a21.26,21.26,0,0,0-21.28-19.45H109.71A21.26,21.26,0,0,0,88.43,308.9l-4.49,49.88A21.37,21.37,0,0,0,98.7,381L94.89,437a24.84,24.84,0,0,0,24.78,26.53H258.51ZM98.88,360.12l4.49-49.88a6.34,6.34,0,0,1,6.34-5.8H319.29a6.34,6.34,0,0,1,6.34,5.8l4.49,49.88a6.37,6.37,0,0,1-5,6.8l-91.65,19.32a92.24,92.24,0,0,1-37.87,0l-91.66-19.32A6.37,6.37,0,0,1,98.88,360.12Z"/></g></g></svg>