<svg xmlns="http://www.w3.org/2000/svg" viewBox="0 0 512.04 512"><title>bus-stop</title><g id="Layer_2" data-name="Layer 2"><g id="Capa_1" data-name="Capa 1"><path d="M473.21,0H200.92a40.91,40.91,0,0,0-38.79,42.67V392.53c0,.13.07.23.07.36a8.46,8.46,0,0,0,.57,2.82l.05.18v0L183,442.35a16.12,16.12,0,0,0,14.64,9.92h7.12V486.4a25.3,25.3,0,0,0,1.57,8.53h-104V341.33a25.63,25.63,0,0,0-25.6-25.6V170.07a68.27,68.27,0,1,0-17.07,0V315.73a25.63,25.63,0,0,0-25.6,25.6v153.6H8.54a8.53,8.53,0,0,0,0,17.07H503.47a8.53,8.53,0,0,0,0-17.07H467.76a25.3,25.3,0,0,0,1.57-8.53V452.27h7.12a16.14,16.14,0,0,0,14.64-9.91l20.2-46.42v0c0-.06,0-.13.06-.19a8.43,8.43,0,0,0,.57-2.82c0-.12.07-.22.07-.35V42.67A40.91,40.91,0,0,0,473.21,0ZM17.07,102.4a51.2,51.2,0,1,1,51.2,51.2A51.2,51.2,0,0,1,17.07,102.4ZM179.2,42.67a23.93,23.93,0,0,1,21.72-25.6H473.21a23.93,23.93,0,0,1,21.73,25.6V384H392.54V366.93a25.63,25.63,0,0,0-25.6-25.6H307.2a25.63,25.63,0,0,0-25.6,25.6V384H179.2ZM375.47,384h-76.8V366.93a8.54,8.54,0,0,1,8.53-8.53h59.73a8.54,8.54,0,0,1,8.53,8.53ZM51.2,494.93V341.33a8.54,8.54,0,0,1,8.53-8.53H76.8a8.54,8.54,0,0,1,8.53,8.53v153.6Zm179.2,0a8.54,8.54,0,0,1-8.53-8.53V452.27H256V486.4a8.54,8.54,0,0,1-8.53,8.53Zm170.67-42.67V486.4a25.3,25.3,0,0,0,1.57,8.53H271.5a25.3,25.3,0,0,0,1.57-8.53V452.27Zm51.2,34.13a8.54,8.54,0,0,1-8.53,8.53H426.67a8.54,8.54,0,0,1-8.53-8.53V452.27h34.13Zm23.33-51.2H198.54l-14.85-34.13H490.45Z"/><path d="M221.87,93.87h230.4a25.63,25.63,0,0,0,25.6-25.6V59.73a25.63,25.63,0,0,0-25.6-25.6H221.87a25.63,25.63,0,0,0-25.6,25.6v8.53A25.63,25.63,0,0,0,221.87,93.87Zm-8.53-34.13a8.54,8.54,0,0,1,8.53-8.53h230.4a8.54,8.54,0,0,1,8.53,8.53v8.53a8.54,8.54,0,0,1-8.53,8.53H221.87a8.54,8.54,0,0,1-8.53-8.53Z"/><path d="M230.4,366.93a34.13,34.13,0,1,0-34.13-34.13A34.13,34.13,0,0,0,230.4,366.93Zm0-51.2a17.07,17.07,0,1,1-17.07,17.07A17.07,17.07,0,0,1,230.4,315.73Z"/><path d="M443.74,298.67a34.13,34.13,0,1,0,34.13,34.13A34.13,34.13,0,0,0,443.74,298.67Zm0,51.2A17.07,17.07,0,1,1,460.8,332.8,17.07,17.07,0,0,1,443.74,349.87Z"/><path d="M221.87,281.6h230.4a25.63,25.63,0,0,0,25.6-25.6V136.53a25.63,25.63,0,0,0-25.6-25.6H221.87a25.63,25.63,0,0,0-25.6,25.6V256A25.63,25.63,0,0,0,221.87,281.6Zm-8.53-145.07a8.54,8.54,0,0,1,8.53-8.53h230.4a8.54,8.54,0,0,1,8.53,8.53V256a8.54,8.54,0,0,1-8.53,8.53H221.87a8.54,8.54,0,0,1-8.53-8.53Z"/></g></g></svg>