<svg xmlns="http://www.w3.org/2000/svg" viewBox="0 0 409.6 409.6"><title>city</title><g id="Layer_2" data-name="Layer 2"><g id="Layer_1-2" data-name="Layer 1"><path d="M259.41,266.24a6.83,6.83,0,0,0-13.65,0V279.9a6.83,6.83,0,0,0,13.65,0Zm0,0"/><path d="M252.59,341.33a6.83,6.83,0,0,0-6.82,6.83v27.3a6.83,6.83,0,1,0,13.65,0v-27.3a6.83,6.83,0,0,0-6.83-6.83Zm0,0"/><path d="M286.72,184.32a6.83,6.83,0,1,0-13.65,0V198a6.83,6.83,0,1,0,13.65,0Zm0,0"/><path d="M259.41,225.28a6.83,6.83,0,1,0-13.65,0v13.65a6.83,6.83,0,1,0,13.65,0Zm0,0"/><path d="M259.41,307.2a6.83,6.83,0,0,0-13.65,0v13.66a6.83,6.83,0,0,0,13.65,0Zm0,0"/><path d="M286.72,225.28a6.83,6.83,0,1,0-13.65,0v13.65a6.83,6.83,0,1,0,13.65,0Zm0,0"/><path d="M232.1,184.32a6.83,6.83,0,1,0-13.65,0V198a6.83,6.83,0,1,0,13.65,0Zm0,0"/><path d="M259.41,184.32a6.83,6.83,0,1,0-13.65,0V198a6.83,6.83,0,1,0,13.65,0Zm0,0"/><path d="M286.72,116.06V102.4a6.83,6.83,0,0,0-13.65,0v13.66a6.83,6.83,0,0,0,13.65,0Zm0,0"/><path d="M232.1,225.28a6.83,6.83,0,1,0-13.65,0v13.65a6.83,6.83,0,1,0,13.65,0Zm0,0"/><path d="M314,102.4a6.83,6.83,0,0,0-13.65,0v13.66a6.83,6.83,0,0,0,13.65,0Zm0,0"/><path d="M225.28,259.41a6.83,6.83,0,0,0-6.83,6.82V279.9a6.83,6.83,0,0,0,13.65,0V266.24a6.83,6.83,0,0,0-6.82-6.82Zm0,0"/><path d="M341.33,307.2a6.83,6.83,0,0,0-13.65,0v13.66a6.83,6.83,0,0,0,13.65,0Zm0,0"/><path d="M334.51,341.33a6.83,6.83,0,0,0-6.83,6.83v27.3a6.83,6.83,0,1,0,13.65,0v-27.3a6.83,6.83,0,0,0-6.82-6.83Zm0,0"/><path d="M361.81,259.41a6.83,6.83,0,0,0-6.82,6.82V279.9a6.83,6.83,0,0,0,13.65,0V266.24a6.83,6.83,0,0,0-6.83-6.82Zm0,0"/><path d="M252.59,122.88a6.83,6.83,0,0,0,6.83-6.82V87.25l68.27-17.07V184.32a6.85,6.85,0,0,0,4.43,6.4l50.18,18.81V279.9a6.83,6.83,0,0,0,13.65,0V204.8a6.84,6.84,0,0,0-4.43-6.4l-50.18-18.81V47.79a6.83,6.83,0,0,0-13.65,0v8.32L250.93,75.3a6.82,6.82,0,0,0-5.17,6.62v34.14a6.83,6.83,0,0,0,6.82,6.82Zm0,0"/><path d="M368.64,225.28a6.83,6.83,0,1,0-13.65,0v13.65a6.83,6.83,0,1,0,13.65,0Zm0,0"/><path d="M341.33,225.28a6.83,6.83,0,1,0-13.65,0v13.65a6.83,6.83,0,1,0,13.65,0Zm0,0"/><path d="M286.72,307.2a6.83,6.83,0,0,0-13.65,0v13.66a6.83,6.83,0,0,0,13.65,0Zm0,0"/><path d="M341.33,266.24a6.83,6.83,0,0,0-13.65,0V279.9a6.83,6.83,0,0,0,13.65,0Zm0,0"/><path d="M279.89,341.33a6.83,6.83,0,0,0-6.83,6.83v27.3a6.83,6.83,0,1,0,13.65,0v-27.3a6.83,6.83,0,0,0-6.82-6.83Zm0,0"/><path d="M286.72,266.24a6.83,6.83,0,0,0-13.65,0V279.9a6.83,6.83,0,0,0,13.65,0Zm0,0"/><path d="M307.2,382.29a6.83,6.83,0,0,0,6.83-6.82V157a6.83,6.83,0,0,0-5.17-6.62L199.63,123.09a6.83,6.83,0,0,0-8.49,6.62V279.9a6.83,6.83,0,0,0,13.66,0V138.45l95.57,23.89V375.47a6.83,6.83,0,0,0,6.83,6.82Zm0,0"/><path d="M150.19,143.36a6.83,6.83,0,0,0-13.65,0V157a6.83,6.83,0,1,0,13.65,0Zm0,0"/><path d="M150.19,102.4a6.83,6.83,0,0,0-13.65,0v13.66a6.83,6.83,0,0,0,13.65,0Zm0,0"/><path d="M95.57,307.2a6.83,6.83,0,0,0-13.65,0v13.66a6.83,6.83,0,0,0,13.65,0Zm0,0"/><path d="M34.13,245.76A6.83,6.83,0,0,0,41,238.93V204.8h68.27V375.47a6.83,6.83,0,1,0,13.65,0V198a6.83,6.83,0,0,0-6.82-6.82H34.13A6.83,6.83,0,0,0,27.3,198v41a6.83,6.83,0,0,0,6.83,6.83Zm0,0"/><path d="M109.23,143.36V157a6.83,6.83,0,1,0,13.65,0V143.36a6.83,6.83,0,0,0-13.65,0Zm0,0"/><path d="M150.19,61.44a6.83,6.83,0,1,0-13.65,0V75.09a6.83,6.83,0,1,0,13.65,0Zm0,0"/><path d="M88.75,341.33a6.83,6.83,0,0,0-6.82,6.83v27.3a6.83,6.83,0,1,0,13.65,0v-27.3a6.83,6.83,0,0,0-6.83-6.83Zm0,0"/><path d="M402.77,395.95H389.12V354a27.31,27.31,0,1,0-13.65,0v41.93H204.8v-28a34.13,34.13,0,1,0-13.66,0v28H41V327a34.13,34.13,0,1,0-13.66,0v69H6.83a6.83,6.83,0,0,0,0,13.66H402.77a6.83,6.83,0,0,0,0-13.66ZM13.65,293.55A20.48,20.48,0,1,1,34.13,314a20.51,20.51,0,0,1-20.48-20.48Zm163.84,41A20.48,20.48,0,1,1,198,355a20.51,20.51,0,0,1-20.48-20.48Zm191.15-6.83a13.65,13.65,0,1,1,13.65,13.65,13.67,13.67,0,0,1-13.65-13.65Zm0,0"/><path d="M54.61,348.16v27.3a6.83,6.83,0,1,0,13.65,0v-27.3a6.83,6.83,0,1,0-13.65,0Zm0,0"/><path d="M95.57,225.28a6.83,6.83,0,1,0-13.65,0v13.65a6.83,6.83,0,1,0,13.65,0Zm0,0"/><path d="M95.57,266.24a6.83,6.83,0,0,0-13.65,0V279.9a6.83,6.83,0,0,0,13.65,0Zm0,0"/><path d="M54.61,225.28v13.65a6.83,6.83,0,1,0,13.65,0V225.28a6.83,6.83,0,1,0-13.65,0Zm0,0"/><path d="M150.19,266.24a6.83,6.83,0,0,0-13.65,0V279.9a6.83,6.83,0,0,0,13.65,0Zm0,0"/><path d="M177.49,184.32a6.83,6.83,0,1,0-13.65,0V198a6.83,6.83,0,1,0,13.65,0Zm0,0"/><path d="M177.49,143.36a6.83,6.83,0,0,0-13.65,0V157a6.83,6.83,0,1,0,13.65,0Zm0,0"/><path d="M177.49,225.28a6.83,6.83,0,1,0-13.65,0v13.65a6.83,6.83,0,1,0,13.65,0Zm0,0"/><path d="M170.67,259.41a6.83,6.83,0,0,0-6.83,6.82V279.9a6.83,6.83,0,0,0,13.65,0V266.24a6.83,6.83,0,0,0-6.82-6.82Zm0,0"/><path d="M177.49,102.4a6.83,6.83,0,0,0-13.65,0v13.66a6.83,6.83,0,0,0,13.65,0Zm0,0"/><path d="M150.19,307.2a6.83,6.83,0,0,0-13.65,0v13.66a6.83,6.83,0,0,0,13.65,0Zm0,0"/><path d="M88.75,177.49a6.83,6.83,0,0,0,6.83-6.82V120.27l23.53-11.77a6.83,6.83,0,0,0,3.77-6.11V45.18L157,28.11l34.13,17.07V102.4a6.83,6.83,0,1,0,13.66,0V41A6.83,6.83,0,0,0,201,34.85L163.84,16.26V6.83a6.83,6.83,0,1,0-13.65,0v9.43L113,34.85A6.84,6.84,0,0,0,109.23,41V98.18L85.69,109.94a6.84,6.84,0,0,0-3.77,6.11v54.61a6.83,6.83,0,0,0,6.82,6.83Zm0,0"/><path d="M150.19,225.28a6.83,6.83,0,1,0-13.65,0v13.65a6.83,6.83,0,1,0,13.65,0Zm0,0"/><path d="M143.36,341.33a6.83,6.83,0,0,0-6.82,6.83v27.3a6.83,6.83,0,1,0,13.65,0v-27.3a6.83,6.83,0,0,0-6.83-6.83Zm0,0"/><path d="M177.49,61.44a6.83,6.83,0,1,0-13.65,0V75.09a6.83,6.83,0,1,0,13.65,0Zm0,0"/><path d="M150.19,184.32a6.83,6.83,0,1,0-13.65,0V198a6.83,6.83,0,1,0,13.65,0Zm0,0"/></g></g></svg>