<svg xmlns="http://www.w3.org/2000/svg" viewBox="0 0 448 400"><title>first-aid-kit</title><g id="Layer_2" data-name="Layer 2"><g id="Layer_1-2" data-name="Layer 1"><path d="M0,144V336a64.07,64.07,0,0,0,64,64H384a64.07,64.07,0,0,0,64-64V144a64.07,64.07,0,0,0-64-64H320V40A40,40,0,0,0,280,0H168a40,40,0,0,0-40,40V80H64A64.07,64.07,0,0,0,0,144ZM113.28,256H16V224h97.28a100.62,100.62,0,0,0,0,32ZM384,384H64a48,48,0,0,1-48-48V272H116.72a111.93,111.93,0,0,0,214.56,0H432v64a48,48,0,0,1-48,48ZM128,240a96,96,0,1,1,96,96,96,96,0,0,1-96-96Zm206.72-16H432v32H334.72a100.62,100.62,0,0,0,0-32ZM304,40V80H288V40a8,8,0,0,0-8-8H264V16h16a24,24,0,0,1,24,24ZM200,32V16h48V32Zm72,16V80H177V48ZM144,40a24,24,0,0,1,24-24h16V32H169a8,8,0,0,0-8,8V80H144ZM64,96H384a48,48,0,0,1,48,48v64H331.28a111.93,111.93,0,0,0-214.56,0H16V144A48,48,0,0,1,64,96Zm0,0"/><rect x="336" y="352" width="16" height="16"/><path d="M400,328a24,24,0,0,1-24,24h-8v16h8a40,40,0,0,0,40-40v-8H400Zm0,0"/><path d="M168,272h24v24a8,8,0,0,0,8,8h48a8,8,0,0,0,8-8V272h24a8,8,0,0,0,8-8V216a8,8,0,0,0-8-8H256V184a8,8,0,0,0-8-8H200a8,8,0,0,0-8,8v24H168a8,8,0,0,0-8,8v48a8,8,0,0,0,8,8Zm8-48h24a8,8,0,0,0,8-8V192h32v24a8,8,0,0,0,8,8h24v32H248a8,8,0,0,0-8,8v24H208V264a8,8,0,0,0-8-8H176Zm0,0"/></g></g></svg>