<svg xmlns="http://www.w3.org/2000/svg" viewBox="0 0 409.6 384"><title>shopping-cart</title><g id="Layer_2" data-name="Layer 2"><g id="Layer_1-2" data-name="Layer 1"><path d="M316.8,352a8,8,0,1,0-8-8,8,8,0,0,0,8,8Zm0,0"/><path d="M184,352a8,8,0,1,0-8-8,8,8,0,0,0,8,8Zm0,0"/><path d="M407.91,99.08A8,8,0,0,0,401.6,96h-288L95.36,18.5A23.92,23.92,0,0,0,72,0H24a24,24,0,0,0,0,48H53l59.64,253.5A23.92,23.92,0,0,0,136,320h16a40,40,0,1,0,64,0h68.84a40,40,0,1,0,64,0h0a24,24,0,0,0,0-48H155l-7.53-32H357.11a24,24,0,0,0,23.29-18.18l29-115.88a8,8,0,0,0-1.46-6.86ZM379.35,160H328.26l6-48h57.09ZM284.8,176h25.34l-6,48H260.8V200a8,8,0,0,0-16,0v24H201.46l-6-48H220.8a8,8,0,1,0,0-16H193.46l-6-48H244.8v24a8,8,0,0,0,16,0V112h57.34l-6,48H284.8a8,8,0,1,0,0,16ZM143.71,224l-11.29-48h46.92l6,48Zm27.63-112,6,48H128.65l-11.29-48ZM208,344a24,24,0,1,1-24-24,24,24,0,0,1,24,24Zm132.8,0a24,24,0,1,1-24-24,24,24,0,0,1,24,24Zm8-56a8,8,0,1,1,0,16H136a8,8,0,0,1-7.79-6.17L65.66,32H24a8,8,0,1,1,0-16H72a8,8,0,0,1,7.79,6.17L129.54,233.6a.19.19,0,0,0,0,0L142.34,288Zm16.07-70.07A8,8,0,0,1,357.1,224H320.26l6-48h49.09Zm0,0"/><path d="M252.8,160a8,8,0,1,0,8,8,8,8,0,0,0-8-8Zm0,0"/></g></g></svg>