<svg xmlns="http://www.w3.org/2000/svg" viewBox="0 0 512 451.73"><title>sun-umbrella</title><g id="Layer_2" data-name="Layer 2"><g id="Layer_1-2" data-name="Layer 1"><path d="M37.11,85.64A48.52,48.52,0,1,0,85.64,37.12,48.58,48.58,0,0,0,37.11,85.64ZM85.64,52.17A33.47,33.47,0,1,1,52.16,85.64,33.51,33.51,0,0,1,85.64,52.17Z"/><path d="M93.16,22.66V7.53a7.53,7.53,0,1,0-15.05,0V22.66a7.53,7.53,0,1,0,15.05,0Z"/><path d="M135.55,25.08l-10.7,10.7a7.53,7.53,0,0,0,10.64,10.64l10.7-10.7a7.53,7.53,0,0,0-10.64-10.64Z"/><path d="M163.75,93.16a7.53,7.53,0,1,0,0-15.05H148.61a7.53,7.53,0,0,0,0,15.05Z"/><path d="M124.85,124.85a7.52,7.52,0,0,0,0,10.64l10.7,10.7a7.53,7.53,0,0,0,10.64-10.64l-10.7-10.7A7.53,7.53,0,0,0,124.85,124.85Z"/><path d="M78.11,148.61v15.14a7.53,7.53,0,0,0,15.05,0V148.61a7.53,7.53,0,0,0-15.05,0Z"/><path d="M25.08,146.19a7.53,7.53,0,0,0,10.64,0l10.7-10.7a7.53,7.53,0,1,0-10.64-10.64l-10.7,10.7A7.52,7.52,0,0,0,25.08,146.19Z"/><path d="M7.53,93.16H22.66a7.53,7.53,0,0,0,0-15.05H7.53a7.53,7.53,0,0,0,0,15.05Z"/><path d="M35.72,25.08A7.53,7.53,0,0,0,25.08,35.72l10.7,10.7A7.53,7.53,0,0,0,46.43,35.79Z"/><path d="M390.09,236.78a7.71,7.71,0,0,0,8.14,3.29c17.81-3.23,36.69-1.16,54.63,6s33.29,18.81,44,33.56a7.53,7.53,0,0,0,13.54-3.36c.28-2,6.8-49.36-8.72-101a7.52,7.52,0,1,0-14.41,4.33c9.06,30.12,10,59.25,9.49,77a119.72,119.72,0,0,0-89.18-32.87c.13-.39.24-.77.37-1.16a281.14,281.14,0,0,0,12.42-55.27,216.57,216.57,0,0,0,0-51.76,163.07,163.07,0,0,0-6.45-29.36l-.07-.21c27,14.63,47.76,36.19,61.85,64.28a7.52,7.52,0,1,0,13.45-6.75c-18.67-37.25-48-64-87.11-79.64-53.83-21.45-109.85-14.4-162,20.41-38.93,26-61.73,57.84-62.68,59.18a7.53,7.53,0,0,0,7.52,11.75c17.93-3.33,37-1.29,55,5.91,17.81,7.1,32.85,18.47,43.54,32.92,2.08,2.81,5.11,4.54,8.68,3.48a95.27,95.27,0,0,1,29.27-.54L261.26,347.89c-1.52,0-3,0-4.55,0-34.68,0-67.83,3.45-98.52,10.27a7.53,7.53,0,0,0,3.26,14.69c29.2-6.48,62.14-9.91,95.26-9.91,15.7,0,31.4.75,47,2.3h.17c29,2.88,56.27,8.42,80.3,16.47C412.89,391.29,435,403.94,448,418A71.06,71.06,0,0,0,429.21,427,55.17,55.17,0,0,1,367,427a70.14,70.14,0,0,0-79.14,0,55.17,55.17,0,0,1-62.24,0,70.14,70.14,0,0,0-79.14,0,55.17,55.17,0,0,1-62.24,0A71,71,0,0,0,65.39,418c13-14,35.09-26.66,63.72-36.26a7.53,7.53,0,0,0-4.79-14.27c-36,12.06-62.07,28.42-75.91,47.49A70.31,70.31,0,0,0,5.07,427a7.53,7.53,0,0,0,8.45,12.46,55.25,55.25,0,0,1,37-9.3,7.36,7.36,0,0,0,1.38.17,55.52,55.52,0,0,1,23.84,9.12,70.14,70.14,0,0,0,79.14,0,55.17,55.17,0,0,1,62.24,0,70.14,70.14,0,0,0,79.14,0,55.17,55.17,0,0,1,62.24,0,70.14,70.14,0,0,0,79.14,0,55.52,55.52,0,0,1,23.78-9.11,7.49,7.49,0,0,0,1.47-.18,55.25,55.25,0,0,1,37,9.3A7.53,7.53,0,0,0,508.36,427,70.29,70.29,0,0,0,465,414.93c-13.86-19.09-40-35.46-76-47.53-22.36-7.49-47.32-12.89-73.85-16.1L369,216A95.22,95.22,0,0,1,390.09,236.78Zm-87.76-55.51.24-.51a270.55,270.55,0,0,1,24.73-42,7.53,7.53,0,1,0-12.19-8.82,280.41,280.41,0,0,0-20.57,33.33c-2.21,4.17-4.45,8.39-6.34,12.72l-.1.21a119.74,119.74,0,0,0-87.35-37.49,253.49,253.49,0,0,1,48-42.06c21.3-14.15,43.29-23.39,65.35-27.45a144.43,144.43,0,0,1,64.25,2.73l-.26.15a166.25,166.25,0,0,0-32,23.06c-3.8,3.47-7.5,7-11,10.75a7.53,7.53,0,0,0,10.89,10.39,171.33,171.33,0,0,1,32.43-26.85,119.09,119.09,0,0,1,17.17-9.08A116.3,116.3,0,0,1,401.07,96c9.07,32.69,6.62,68-1.33,100.61q-2.57,10.53-5.93,20.85l-.07.22a116,116,0,0,0-37.05-26l-.58-.26A117.76,117.76,0,0,0,302.33,181.27ZM356,208,299.58,349.69q-5.23-.45-10.54-.79c-3.91-.27-7.82-.46-11.73-.62l59-148.08a105.64,105.64,0,0,1,10.53,3.63C347.42,204.05,356,208,356,208Z"/></g></g></svg>