<svg xmlns="http://www.w3.org/2000/svg" viewBox="0 0 100.17 100.17"><defs><style>.cls-1{fill:#fff;}</style></defs><title>insta</title><g id="Layer_2" data-name="Layer 2"><g id="Layer_1-2" data-name="Layer 1"><path class="cls-1" d="M12.86,0H87.31a12.89,12.89,0,0,1,12.86,12.86V87.31a12.89,12.89,0,0,1-12.86,12.85H12.86A12.89,12.89,0,0,1,0,87.31V12.86A12.9,12.9,0,0,1,12.86,0ZM73,11.12a4.53,4.53,0,0,0-4.51,4.52V26.43A4.52,4.52,0,0,0,73,30.94H84.29a4.52,4.52,0,0,0,4.51-4.51V15.64a4.53,4.53,0,0,0-4.51-4.52ZM88.85,42.36H80A29.33,29.33,0,0,1,81.32,51c0,16.66-13.95,30.17-31.14,30.17S19,67.62,19,51a29.4,29.4,0,0,1,1.29-8.6h-9.2V84.68a4,4,0,0,0,4,4H84.87a4,4,0,0,0,4-4Zm-38.67-12c-11.11,0-20.12,8.72-20.12,19.5s9,19.49,20.12,19.49S70.3,60.63,70.3,49.87,61.29,30.37,50.18,30.37Z"/></g></g></svg>