<svg xmlns="http://www.w3.org/2000/svg" viewBox="0 0 311.3 390.18"><defs><clipPath id="a" transform="translate(0 -.78)"><path fill="none" d="M0 0h312v391.92H0z"/></clipPath></defs><g data-name="Layer 2"><g clip-path="url(#a)" data-name="Layer 1"><path fill="#e48132" d="M150.1.1C72.58 2.82 8.18 63.3.74 140.5a156.69 156.69 0 0 0 2.08 44.72s.24 1.68 1 4.88a156.15 156.15 0 0 0 10.48 30.88c15.6 37 51.68 98.8 132.64 166.08a13.53 13.53 0 0 0 17.28 0c81-67.2 117-129 132.72-166.16a149.33 149.33 0 0 0 10.48-30.88c.72-3.12 1-4.88 1-4.88A155.74 155.74 0 0 0 150.1.1zm5.52 233a75.6 75.6 0 1 1 75.6-75.6 75.59 75.59 0 0 1-75.6 75.6zm0 0"/></g></g></svg>