<svg xmlns="http://www.w3.org/2000/svg" viewBox="0 0 500.99 501">
    <path d="M467.34 125.3A248.75 248.75 0 0 0 315.3 8.64 251.81 251.81 0 0 0 250.09 0 250.49 250.49 0 0 0 33.65 375.69a248.76 248.76 0 0 0 152 116.66 248.89 248.89 0 0 0 190-25 250.39 250.39 0 0 0 91.65-342zm9.9 186a235 235 0 0 1-226.36 174.04 236 236 0 0 1-61.14-8.1 234.82 234.82 0 0 1 60.38-461.58 236.26 236.26 0 0 1 61.13 8.1 234.75 234.75 0 0 1 166 287.5z"/>
    <path d="M370.53 231.11L206 136.12a22.39 22.39 0 0 0-33.58 19.39v190a22.16 22.16 0 0 0 11.19 19.39 22.1 22.1 0 0 0 22.38 0l164.53-95a22.39 22.39 0 0 0 0-38.77zm-7.82 25.22l-164.53 95a6.56 6.56 0 0 1-6.75 0 6.57 6.57 0 0 1-3.36-5.83v-190a6.58 6.58 0 0 1 3.37-5.83 6.66 6.66 0 0 1 6.74 0l164.52 95a6.74 6.74 0 0 1 0 11.67zM276.36 58.93a8 8 0 0 0-1.08-.07 7.83 7.83 0 0 0-1 15.58 179.63 179.63 0 0 1 116.84 67.45 7.82 7.82 0 0 0 12.38-9.58 195.41 195.41 0 0 0-127.14-73.38z"/>
</svg>