<svg xmlns="http://www.w3.org/2000/svg" viewBox="0 0 512 500.78">
    <path d="M256 72.3c-98.2 0-178.09 79.89-178.09 178.09S157.8 428.48 256 428.48s178.09-79.89 178.09-178.09S354.2 72.3 256 72.3zm0 333.91c-85.92 0-155.83-69.9-155.83-155.83S170.08 94.57 256 94.57s155.83 69.9 155.83 155.83S341.92 406.22 256 406.22z"/>
    <path d="M305 201.37a11.13 11.13 0 0 0-15.74 0L177.61 313a11.13 11.13 0 1 0 15.74 15.74L305 217.11a11.13 11.13 0 0 0 0-15.74zM326.82 190.7a11.1 11.1 0 0 0 7.87-3.26l.8-.8a11.13 11.13 0 0 0-15.75-15.74l-.8.8a11.13 11.13 0 0 0 7.87 19zM243.4 196.05a41.74 41.74 0 1 0-41.74 41.74 41.79 41.79 0 0 0 41.74-41.74zm-61.22 0a19.48 19.48 0 1 1 19.48 19.48 19.5 19.5 0 0 1-19.48-19.48zM310.34 263a41.74 41.74 0 1 0 41.74 41.74A41.79 41.79 0 0 0 310.34 263zm0 61.22a19.48 19.48 0 1 1 19.48-19.48 19.5 19.5 0 0 1-19.48 19.47z"/>
</svg>