<svg xmlns="http://www.w3.org/2000/svg" viewBox="0 0 512 512">
    <path d="M310 190a10 10 0 1 0 10 10 10 10 0 0 0-10-10z"/>
    <path d="M500.28 443.72L366.8 310.24A198.2 198.2 0 0 0 400 200C400 89.72 310.28 0 200 0S0 89.72 0 200s89.72 200 200 200a198.21 198.21 0 0 0 110.24-33.2l36.89 36.89 96.57 96.57a40 40 0 1 0 56.56-56.56zm-173.76-88.93a200.68 200.68 0 0 0 28.28-28.28l28.37 28.37a242.73 242.73 0 0 1-28.28 28.28zM20 200c0-99.25 80.75-180 180-180s180 80.75 180 180a178.46 178.46 0 0 1-34.27 105.54 180.87 180.87 0 0 1-40.19 40.19A178.46 178.46 0 0 1 200 380c-99.25 0-180-80.75-180-180zm466.14 286.14a20 20 0 0 1-28.28 0l-88.8-88.8a262.77 262.77 0 0 0 28.28-28.28l88.8 88.8a20 20 0 0 1 0 28.27z"/>
    <path d="M360 200c0-88.22-71.77-160-160-160S40 111.78 40 200s71.78 160 160 160 160-71.77 160-160zM200 340c-77.2 0-140-62.8-140-140S122.8 60 200 60s140 62.8 140 140-62.8 140-140 140z"/>
    <path d="M306.32 170a10 10 0 0 0 5.75-12.92A120.19 120.19 0 0 0 200 80a10 10 0 0 0 0 20 100.68 100.68 0 0 1 93.4 64.25 10 10 0 0 0 12.92 5.75z"/>
</svg>